<svg width="1200" height="260" viewBox="0 0 1200 260" fill="none" xmlns="http://www.w3.org/2000/svg" role="img" aria-labelledby="title desc">
  <title id="title">Falling blocks activity</title>
  <desc id="desc">A clean blue and dark Tetris-style animation where blocks fall, stack, fill the board, and restart.</desc>

  <defs>
    <style>
      .dark { fill: #242432; }
      .blue { fill: #275b9f; }
      .line { stroke: #d7dde5; stroke-width: 4; }
      .ghost { fill: none; stroke: #d7dde5; stroke-width: 1; opacity: 0.28; }
      @media (prefers-reduced-motion: reduce) {
        animate, animateTransform { display: none; }
      }
    </style>
  </defs>

  <rect width="1200" height="260" fill="#ffffff"/>
  <path d="M24 18H1176" class="line"/>
  <path d="M24 238H1176" class="line"/>

  <g transform="translate(236 48)">
    <g opacity="0.55">
      <rect x="0" y="32" width="18" height="18" rx="3" class="ghost"/><rect x="24" y="32" width="18" height="18" rx="3" class="ghost"/><rect x="48" y="32" width="18" height="18" rx="3" class="ghost"/><rect x="72" y="32" width="18" height="18" rx="3" class="ghost"/><rect x="96" y="32" width="18" height="18" rx="3" class="ghost"/><rect x="120" y="32" width="18" height="18" rx="3" class="ghost"/><rect x="144" y="32" width="18" height="18" rx="3" class="ghost"/><rect x="168" y="32" width="18" height="18" rx="3" class="ghost"/><rect x="192" y="32" width="18" height="18" rx="3" class="ghost"/><rect x="216" y="32" width="18" height="18" rx="3" class="ghost"/><rect x="240" y="32" width="18" height="18" rx="3" class="ghost"/><rect x="264" y="32" width="18" height="18" rx="3" class="ghost"/><rect x="288" y="32" width="18" height="18" rx="3" class="ghost"/><rect x="312" y="32" width="18" height="18" rx="3" class="ghost"/><rect x="336" y="32" width="18" height="18" rx="3" class="ghost"/><rect x="360" y="32" width="18" height="18" rx="3" class="ghost"/><rect x="384" y="32" width="18" height="18" rx="3" class="ghost"/><rect x="408" y="32" width="18" height="18" rx="3" class="ghost"/><rect x="432" y="32" width="18" height="18" rx="3" class="ghost"/><rect x="456" y="32" width="18" height="18" rx="3" class="ghost"/><rect x="480" y="32" width="18" height="18" rx="3" class="ghost"/><rect x="504" y="32" width="18" height="18" rx="3" class="ghost"/><rect x="528" y="32" width="18" height="18" rx="3" class="ghost"/><rect x="552" y="32" width="18" height="18" rx="3" class="ghost"/><rect x="576" y="32" width="18" height="18" rx="3" class="ghost"/><rect x="600" y="32" width="18" height="18" rx="3" class="ghost"/><rect x="624" y="32" width="18" height="18" rx="3" class="ghost"/><rect x="648" y="32" width="18" height="18" rx="3" class="ghost"/><rect x="672" y="32" width="18" height="18" rx="3" class="ghost"/><rect x="696" y="32" width="18" height="18" rx="3" class="ghost"/>
    </g>

    <g id="stack">
      <animate attributeName="opacity" values="1;1;0;0;1" keyTimes="0;0.86;0.9;0.96;1" dur="12s" repeatCount="indefinite"/>

      <g opacity="0"><animate attributeName="opacity" values="0;1;1;0" keyTimes="0;0.09;0.86;0.9" dur="12s" repeatCount="indefinite"/><rect x="0" y="104" width="18" height="18" rx="3" class="dark"/><rect x="24" y="104" width="18" height="18" rx="3" class="dark"/><rect x="48" y="104" width="18" height="18" rx="3" class="dark"/><rect x="72" y="104" width="18" height="18" rx="3" class="dark"/></g>
      <g opacity="0"><animate attributeName="opacity" values="0;0;1;1;0" keyTimes="0;0.16;0.17;0.86;0.9" dur="12s" repeatCount="indefinite"/><rect x="96" y="104" width="18" height="18" rx="3" class="blue"/><rect x="120" y="104" width="18" height="18" rx="3" class="blue"/><rect x="144" y="104" width="18" height="18" rx="3" class="blue"/><rect x="144" y="80" width="18" height="18" rx="3" class="blue"/></g>
      <g opacity="0"><animate attributeName="opacity" values="0;0;1;1;0" keyTimes="0;0.25;0.26;0.86;0.9" dur="12s" repeatCount="indefinite"/><rect x="168" y="104" width="18" height="18" rx="3" class="dark"/><rect x="192" y="104" width="18" height="18" rx="3" class="dark"/><rect x="168" y="80" width="18" height="18" rx="3" class="dark"/><rect x="192" y="80" width="18" height="18" rx="3" class="dark"/></g>
      <g opacity="0"><animate attributeName="opacity" values="0;0;1;1;0" keyTimes="0;0.34;0.35;0.86;0.9" dur="12s" repeatCount="indefinite"/><rect x="216" y="104" width="18" height="18" rx="3" class="blue"/><rect x="240" y="104" width="18" height="18" rx="3" class="blue"/><rect x="264" y="104" width="18" height="18" rx="3" class="blue"/><rect x="240" y="80" width="18" height="18" rx="3" class="blue"/></g>
      <g opacity="0"><animate attributeName="opacity" values="0;0;1;1;0" keyTimes="0;0.43;0.44;0.86;0.9" dur="12s" repeatCount="indefinite"/><rect x="288" y="104" width="18" height="18" rx="3" class="dark"/><rect x="312" y="104" width="18" height="18" rx="3" class="dark"/><rect x="336" y="104" width="18" height="18" rx="3" class="dark"/><rect x="336" y="80" width="18" height="18" rx="3" class="dark"/></g>
      <g opacity="0"><animate attributeName="opacity" values="0;0;1;1;0" keyTimes="0;0.52;0.53;0.86;0.9" dur="12s" repeatCount="indefinite"/><rect x="360" y="104" width="18" height="18" rx="3" class="blue"/><rect x="384" y="104" width="18" height="18" rx="3" class="blue"/><rect x="384" y="80" width="18" height="18" rx="3" class="blue"/><rect x="408" y="80" width="18" height="18" rx="3" class="blue"/></g>
      <g opacity="0"><animate attributeName="opacity" values="0;0;1;1;0" keyTimes="0;0.61;0.62;0.86;0.9" dur="12s" repeatCount="indefinite"/><rect x="432" y="104" width="18" height="18" rx="3" class="dark"/><rect x="456" y="104" width="18" height="18" rx="3" class="dark"/><rect x="480" y="104" width="18" height="18" rx="3" class="dark"/><rect x="504" y="104" width="18" height="18" rx="3" class="dark"/></g>
      <g opacity="0"><animate attributeName="opacity" values="0;0;1;1;0" keyTimes="0;0.7;0.71;0.86;0.9" dur="12s" repeatCount="indefinite"/><rect x="528" y="104" width="18" height="18" rx="3" class="blue"/><rect x="552" y="104" width="18" height="18" rx="3" class="blue"/><rect x="576" y="104" width="18" height="18" rx="3" class="blue"/><rect x="528" y="80" width="18" height="18" rx="3" class="blue"/></g>
      <g opacity="0"><animate attributeName="opacity" values="0;0;1;1;0" keyTimes="0;0.79;0.8;0.86;0.9" dur="12s" repeatCount="indefinite"/><rect x="600" y="104" width="18" height="18" rx="3" class="dark"/><rect x="624" y="104" width="18" height="18" rx="3" class="dark"/><rect x="648" y="104" width="18" height="18" rx="3" class="dark"/><rect x="672" y="104" width="18" height="18" rx="3" class="dark"/><rect x="696" y="104" width="18" height="18" rx="3" class="dark"/></g>
    </g>

    <g>
      <g transform="translate(0 -80)"><animateTransform attributeName="transform" type="translate" values="0 -80;0 104;0 104;0 -80" keyTimes="0;0.08;0.09;1" dur="12s" repeatCount="indefinite"/><animate attributeName="opacity" values="1;1;0;0" keyTimes="0;0.08;0.09;1" dur="12s" repeatCount="indefinite"/><rect x="0" y="0" width="18" height="18" rx="3" class="dark"/><rect x="24" y="0" width="18" height="18" rx="3" class="dark"/><rect x="48" y="0" width="18" height="18" rx="3" class="dark"/><rect x="72" y="0" width="18" height="18" rx="3" class="dark"/></g>
      <g transform="translate(96 -80)"><animateTransform attributeName="transform" type="translate" values="96 -80;96 80;96 80;96 -80" keyTimes="0;0.16;0.17;1" dur="12s" repeatCount="indefinite"/><animate attributeName="opacity" values="0;1;1;0;0" keyTimes="0;0.09;0.16;0.17;1" dur="12s" repeatCount="indefinite"/><rect x="0" y="24" width="18" height="18" rx="3" class="blue"/><rect x="24" y="24" width="18" height="18" rx="3" class="blue"/><rect x="48" y="24" width="18" height="18" rx="3" class="blue"/><rect x="48" y="0" width="18" height="18" rx="3" class="blue"/></g>
      <g transform="translate(168 -80)"><animateTransform attributeName="transform" type="translate" values="168 -80;168 80;168 80;168 -80" keyTimes="0;0.25;0.26;1" dur="12s" repeatCount="indefinite"/><animate attributeName="opacity" values="0;1;1;0;0" keyTimes="0;0.18;0.25;0.26;1" dur="12s" repeatCount="indefinite"/><rect x="0" y="0" width="18" height="18" rx="3" class="dark"/><rect x="24" y="0" width="18" height="18" rx="3" class="dark"/><rect x="0" y="24" width="18" height="18" rx="3" class="dark"/><rect x="24" y="24" width="18" height="18" rx="3" class="dark"/></g>
      <g transform="translate(216 -80)"><animateTransform attributeName="transform" type="translate" values="216 -80;216 80;216 80;216 -80" keyTimes="0;0.34;0.35;1" dur="12s" repeatCount="indefinite"/><animate attributeName="opacity" values="0;1;1;0;0" keyTimes="0;0.27;0.34;0.35;1" dur="12s" repeatCount="indefinite"/><rect x="0" y="24" width="18" height="18" rx="3" class="blue"/><rect x="24" y="24" width="18" height="18" rx="3" class="blue"/><rect x="48" y="24" width="18" height="18" rx="3" class="blue"/><rect x="24" y="0" width="18" height="18" rx="3" class="blue"/></g>
      <g transform="translate(288 -80)"><animateTransform attributeName="transform" type="translate" values="288 -80;288 80;288 80;288 -80" keyTimes="0;0.43;0.44;1" dur="12s" repeatCount="indefinite"/><animate attributeName="opacity" values="0;1;1;0;0" keyTimes="0;0.36;0.43;0.44;1" dur="12s" repeatCount="indefinite"/><rect x="0" y="24" width="18" height="18" rx="3" class="dark"/><rect x="24" y="24" width="18" height="18" rx="3" class="dark"/><rect x="48" y="24" width="18" height="18" rx="3" class="dark"/><rect x="48" y="0" width="18" height="18" rx="3" class="dark"/></g>
      <g transform="translate(360 -80)"><animateTransform attributeName="transform" type="translate" values="360 -80;360 80;360 80;360 -80" keyTimes="0;0.52;0.53;1" dur="12s" repeatCount="indefinite"/><animate attributeName="opacity" values="0;1;1;0;0" keyTimes="0;0.45;0.52;0.53;1" dur="12s" repeatCount="indefinite"/><rect x="0" y="24" width="18" height="18" rx="3" class="blue"/><rect x="24" y="24" width="18" height="18" rx="3" class="blue"/><rect x="24" y="0" width="18" height="18" rx="3" class="blue"/><rect x="48" y="0" width="18" height="18" rx="3" class="blue"/></g>
      <g transform="translate(432 -80)"><animateTransform attributeName="transform" type="translate" values="432 -80;432 104;432 104;432 -80" keyTimes="0;0.61;0.62;1" dur="12s" repeatCount="indefinite"/><animate attributeName="opacity" values="0;1;1;0;0" keyTimes="0;0.54;0.61;0.62;1" dur="12s" repeatCount="indefinite"/><rect x="0" y="0" width="18" height="18" rx="3" class="dark"/><rect x="24" y="0" width="18" height="18" rx="3" class="dark"/><rect x="48" y="0" width="18" height="18" rx="3" class="dark"/><rect x="72" y="0" width="18" height="18" rx="3" class="dark"/></g>
      <g transform="translate(528 -80)"><animateTransform attributeName="transform" type="translate" values="528 -80;528 80;528 80;528 -80" keyTimes="0;0.7;0.71;1" dur="12s" repeatCount="indefinite"/><animate attributeName="opacity" values="0;1;1;0;0" keyTimes="0;0.63;0.7;0.71;1" dur="12s" repeatCount="indefinite"/><rect x="0" y="0" width="18" height="18" rx="3" class="blue"/><rect x="0" y="24" width="18" height="18" rx="3" class="blue"/><rect x="24" y="24" width="18" height="18" rx="3" class="blue"/><rect x="48" y="24" width="18" height="18" rx="3" class="blue"/></g>
      <g transform="translate(600 -80)"><animateTransform attributeName="transform" type="translate" values="600 -80;600 104;600 104;600 -80" keyTimes="0;0.79;0.8;1" dur="12s" repeatCount="indefinite"/><animate attributeName="opacity" values="0;1;1;0;0" keyTimes="0;0.72;0.79;0.8;1" dur="12s" repeatCount="indefinite"/><rect x="0" y="0" width="18" height="18" rx="3" class="dark"/><rect x="24" y="0" width="18" height="18" rx="3" class="dark"/><rect x="48" y="0" width="18" height="18" rx="3" class="dark"/><rect x="72" y="0" width="18" height="18" rx="3" class="dark"/><rect x="96" y="0" width="18" height="18" rx="3" class="dark"/></g>
    </g>
  </g>
</svg>
